<?xml version="1.0" encoding="utf-8"?>
<!-- Generator: Adobe Illustrator 25.2.0, SVG Export Plug-In . SVG Version: 6.00 Build 0)  -->
<svg version="1.1" id="Logo_1_" xmlns="http://www.w3.org/2000/svg" xmlns:xlink="http://www.w3.org/1999/xlink" x="0px" y="0px"
	 viewBox="0 0 380 298.73" style="enable-background:new 0 0 380 298.73;" xml:space="preserve">
<style type="text/css">
	.st0{fill:#B59631;}
</style>
<g>
	<g id="_x3C_Path_x3E__12_">
		<g>
			<path d="M178.64,9.69c0.01-3.23-0.56-5-4.26-4.54c-2.17,0.27-4.41,0.22-6.59,0.01c-3.29-0.33-4.01,1.15-4,4.19
				c0.09,31.41,0.06,62.83,0.06,96.4c5.29-7.23,9.37-12.89,13.56-18.47c1.18-1.57,1.17-3.26,1.17-5
				C178.59,58.08,178.53,33.88,178.64,9.69z"/>
		</g>
	</g>
	<g id="_x3C_Path_x3E__10_">
		<g>
			<path d="M173.73,128.62c0,0.01,0,0.01,0.01,0.02c0.26,0.64-0.1,0.78-0.65,0.75c-0.92,1.47-1.64,3.11-2.79,4.38
				c-4.53,5.04-7.6,10.57-6.76,17.64l0,0c0,0,0,0,0,0.01c0.1,0.17,0.32,0.36,0.29,0.51c-0.07,0.36-0.25,0.71-0.39,1.06
				c0.13,8.78,0.79,17.59,0.21,26.32c-0.41,6.29,1.96,7.26,7.42,7.03c2.57-0.11,4.68-0.09,6.05-1.05
				c-0.01-4.71-0.02-9.43-0.02-14.14c-0.01-11.34,0.02-22.67,0.14-34.01c0.02-3.32,0.07-6.63,0.15-9.94
				c-0.01-0.87,0.03-1.74,0.08-2.61C176.1,126.08,174.91,127.36,173.73,128.62z"/>
		</g>
	</g>
	<g id="_x3C_Path_x3E__8_">
		<g>
			<path d="M243.01,169.05c-5.42-8.85-10.72-17.51-16.02-26.16c-1.12-0.44-1.25-1.46-1.42-2.45c-1.43-0.95-2.17-2.36-2.59-3.96
				c-0.89-0.58-1.33-1.37-1.18-2.42c-0.25-0.36-0.49-0.72-0.73-1.09c-8.29-10.63-14.29-22.84-22.71-34.78l-1.04-1.65l-3.61,5.97
				c-1.98,2.2-3.99,4.25-4.2,6.94l-0.02,0.03l0.02,0.02c-0.11,1.59,0.4,3.4,1.93,5.6l0,0c1.26,1.81,2.52,3.61,3.77,5.42
				c0.99,1.67,1.98,3.33,2.98,5c0.81,1.39,1.62,2.78,2.43,4.17c3.2,5.19,6.4,10.37,9.61,15.56c0.85,1.36,1.69,2.73,2.54,4.09
				c6.91,10.97,13.83,21.94,20.72,32.93c1.29,2.05,2.24,4.16,5.38,3.98c0.07,0,0.13-0.01,0.2-0.01l0.2,0.32h14.8L243.01,169.05z"/>
		</g>
	</g>
	<g id="KaroVerifySmart_6_">
		<g>
			<path d="M34.03,266.84c-2.65-4.01-5.33-9.7-8.03-17.08c5.55-3.46,9.75-6.5,12.6-9.11c2.85-2.62,4.27-5.12,4.27-7.53
				c0-2.45-0.56-4.64-1.66-6.58c-3.52,7.34-12.69,16.3-27.51,26.89l0.94-5.69c1.21-7.21,1.81-11.66,1.81-13.35
				c0-1.69-0.07-2.87-0.22-3.54c-0.14-0.72-0.46-1.46-0.94-2.21c-0.92-1.35-3.21-2.11-6.88-2.28c0.19,2.19,0.29,3.92,0.29,5.19
				c0,5.95-0.89,14.34-2.68,25.18C5,263.26,4.49,267.6,4.49,269.76c0,2.11,0.6,3.96,1.81,5.57c1.25,1.56,3.38,2.8,6.37,3.73
				c-0.68-1.39-1.01-3.75-1.01-7.09c0-3.37,0.46-8.12,1.38-14.24c0.77-0.51,1.91-1.2,3.4-2.09c1.54-0.93,2.44-1.48,2.68-1.65
				c2.36,5.69,4.66,10.36,6.88,13.98c1.45,2.4,2.87,4.37,4.27,5.88c1.45,1.52,3.09,2.78,4.92,3.8c1.88,1.01,3.62,1.52,5.21,1.52
				s2.87-0.21,3.84-0.63C40.08,274.71,36.68,270.81,34.03,266.84z M86.94,246.54c0-3.67-2.05-5.5-6.15-5.5
				c-0.29,0-1.01,0.04-2.17,0.13c0.29,2.02,0.43,4.62,0.43,7.78c0,3.12-0.65,6.54-1.95,10.25c-1.25,3.67-3.06,6.81-5.43,9.43
				c-2.36,2.57-4.9,3.86-7.6,3.86c-1.93,0-3.43-0.7-4.49-2.09c-1.01-1.43-1.52-3.16-1.52-5.19c0-2.02,0.36-4.13,1.09-6.33
				c0.77-2.24,1.86-4.41,3.26-6.52c1.4-2.15,3.28-4.07,5.65-5.76c2.36-1.69,4.97-2.85,7.82-3.48c-2.03-0.59-3.88-0.89-5.57-0.89
				c-3.91,0-7.46,1.29-10.64,3.86c-3.14,2.57-5.5,5.63-7.09,9.17c-1.54,3.5-2.32,7.11-2.32,10.82c0,3.67,0.97,6.56,2.9,8.67
				c1.93,2.07,4.46,3.1,7.6,3.1c3.19,0,6.42-1.22,9.7-3.67c3.28-2.45,5.57-5.67,6.88-9.68c-0.19,1.69-0.29,2.83-0.29,3.42
				c0,3.37,0.68,5.97,2.03,7.78c1.4,1.77,3.62,2.93,6.66,3.48c-1.5-2.66-2.24-5.69-2.24-9.11c0-3.46,0.58-8.04,1.74-13.73
				C86.36,250.61,86.94,247.34,86.94,246.54z M162.66,244.51c-2.12-2.49-4.8-3.73-8.03-3.73c-3.19,0-6.35,1.05-9.48,3.16
				c-3.09,2.07-5.55,5.38-7.38,9.93c1.11-5.86,4.05-10.17,8.83-12.91c0-0.84-0.48-1.27-1.45-1.27c-4.49,1.52-8.03,4.22-10.64,8.1
				c-2.61,3.88-3.91,8.48-3.91,13.79c0,5.27,1.47,9.34,4.42,12.21c2.94,2.83,6.37,4.24,10.28,4.24c2.8,0,5.36-0.48,7.67-1.46
				c4.3-1.73,7.58-4.79,9.84-9.17c2.03-3.96,3.04-8.27,3.04-12.91C165.84,250.29,164.78,246.96,162.66,244.51z M155.2,268.3
				c-2.36,3.88-5.43,5.82-9.19,5.82c-2.65,0-4.63-1.08-5.94-3.23c-1.3-2.19-1.95-4.77-1.95-7.72c0-2.99,0.63-5.86,1.88-8.6
				c1.3-2.78,3.06-5.1,5.28-6.96c2.22-1.9,4.42-2.85,6.59-2.85c2.22,0,3.91,0.91,5.07,2.72c1.21,1.77,1.81,4.72,1.81,8.86
				C158.75,260.43,157.57,264.42,155.2,268.3z M120.39,240.52c-2.08,0-4.34,1.31-6.8,3.92c-2.41,2.57-4.49,6.6-6.23,12.08
				c0.43-2.19,0.65-4.47,0.65-6.83c0-2.4-0.58-4.49-1.74-6.26c-1.11-1.81-3.09-3.21-5.94-4.18c0.82,2.83,1.23,5.93,1.23,9.3
				c0,3.33-0.51,7.82-1.52,13.48s-1.52,8.9-1.52,9.74c0,3.63,2.12,5.44,6.37,5.44c0.19,0,0.92-0.04,2.17-0.13
				c-0.24-3.16-0.36-4.96-0.36-5.38c0-3.75,0.39-7.25,1.16-10.5c0.77-3.25,1.74-5.88,2.9-7.91c1.16-2.02,2.36-3.61,3.62-4.75
				c1.25-1.14,2.44-1.71,3.55-1.71c1.4,0,2.1,0.76,2.1,2.28c0,2.15-0.82,4.26-2.46,6.33c0.43,0.08,1.04,0.13,1.81,0.13
				c2.41,0,4.25-0.76,5.5-2.28c1.25-1.56,1.88-3.4,1.88-5.5s-0.53-3.84-1.59-5.19C124.1,241.22,122.51,240.52,120.39,240.52z"/>
		</g>
	</g>
</g>
<g id="_x3C_Group_x3E__1_">
	<g id="_x3C_Path_x3E__2_">
		<g>
			<path class="st0" d="M365.55,50.56C335.84,14.82,295.89,5.3,253.27,23.92c-23.78,10.39-43.01,26.57-58.48,47.23
				c-3.78,5.05-7.55,10.12-11.3,15.2l0-0.01l-0.83,1.13c-9.98,13.52-19.87,27.1-29.83,40.63l0,0c-0.7,0.97-1.41,1.94-2.11,2.9
				c0,0,0,0,0,0l0,0c0,0,0,0,0,0c-0.49,0.48-0.98,0.95-1.47,1.42c-0.06,0.25-0.08,0.5-0.12,0.75l-8.48,11.56
				c-1.6,2.1-3.19,4.2-4.79,6.29c0,0.08-0.02,0.17-0.02,0.25l-2.47,3.37c-0.04,0-0.08,0.01-0.12,0.01l0,0
				c-3.44,4.75-6.89,9.51-10.73,14.81L89.57,51.6H76.82c6.04,21.7,11.89,43.45,17.73,65.21c5.88,21.89,11.69,43.8,17.35,65.75h17.35
				l0.28-0.37c0.02,0.01,0.05,0.02,0.07,0.03l8.57-11.56l0,0l10.5-14.16c0.05-0.04,0.11-0.08,0.16-0.12
				c0.08-0.14,0.17-0.29,0.25-0.43l32.96-44.45c6.63-8.9,13.27-17.79,19.84-26.74c14.51-19.74,33.07-34.77,54.54-46.14
				c17.65-9.35,36.42-14.41,56.68-11.4c23.49,3.49,41.38,16.44,56.79,33.6c2.01,2.24,3.96,4.52,5.94,6.78
				C373.82,60.75,369.75,55.6,365.55,50.56z"/>
		</g>
	</g>
</g>
<g id="KaroVerifySmart_4_">
	<g>
		<path class="st0" d="M233.09,261.53c4.3,0,8.06-1.03,11.29-3.1c3.28-2.11,4.92-5,4.92-8.67c0-6.12-3.62-9.17-10.86-9.17
			c-3.28,0-6.3,0.65-9.05,1.96c-2.7,1.31-4.9,3.02-6.59,5.12c-3.43,4.39-5.14,9.36-5.14,14.93c0,4.89,1.3,8.69,3.91,11.39
			c2.61,2.7,5.65,4.05,9.12,4.05c3.52,0,6.61-0.63,9.27-1.9s5.09-3.48,7.31-6.64c0-0.93-0.89-1.5-2.68-1.71
			c-2.99,4.13-6.88,6.2-11.65,6.2c-5.07,0-7.6-3.73-7.6-11.2c0-0.89,0.02-1.54,0.07-1.96C227.69,261.3,230.24,261.53,233.09,261.53z
			 M229.69,248.24c2.03-2.91,4.49-4.37,7.38-4.37c1.54,0,2.68,0.42,3.4,1.27c0.77,0.84,1.16,1.96,1.16,3.35
			c0,2.45-0.97,4.64-2.9,6.58c-1.01,1.01-2.46,1.83-4.34,2.47c-1.88,0.63-4.1,0.95-6.66,0.95h-2.03
			C226.38,254.57,227.71,251.15,229.69,248.24z M280.22,240.52c-2.08,0-4.34,1.31-6.8,3.92c-2.41,2.57-4.49,6.6-6.23,12.08
			c0.43-2.19,0.65-4.47,0.65-6.83c0-2.4-0.58-4.49-1.74-6.26c-1.11-1.81-3.09-3.21-5.94-4.18c0.82,2.83,1.23,5.93,1.23,9.3
			c0,3.33-0.51,7.82-1.52,13.48s-1.52,8.9-1.52,9.74c0,3.63,2.12,5.44,6.37,5.44c0.19,0,0.92-0.04,2.17-0.13
			c-0.24-3.16-0.36-4.96-0.36-5.38c0-3.75,0.39-7.25,1.16-10.5c0.77-3.25,1.74-5.88,2.9-7.91c1.16-2.02,2.36-3.61,3.62-4.75
			c1.25-1.14,2.44-1.71,3.55-1.71c1.4,0,2.1,0.76,2.1,2.28c0,2.15-0.82,4.26-2.46,6.33c0.43,0.08,1.04,0.13,1.81,0.13
			c2.41,0,4.25-0.76,5.5-2.28c1.25-1.56,1.88-3.4,1.88-5.5s-0.53-3.84-1.59-5.19C283.93,241.22,282.34,240.52,280.22,240.52z
			 M208.99,226.04c0,3.08-1.95,9.76-5.86,20.06c-3.91,10.25-7.46,18.45-10.64,24.61c-0.29-1.39-1.09-4.75-2.39-10.06
			c-1.25-5.36-1.95-8.54-2.1-9.55c-2.27-11.09-3.91-17.88-4.92-20.37c-0.97-2.49-2.7-3.73-5.21-3.73c-1.35,0-3.04,0.55-5.07,1.65
			c1.64,2.02,3.33,6.14,5.07,12.34c1.79,6.2,3.55,13.12,5.28,20.75c1.74,7.59,3.04,12.7,3.91,15.31c0.14,0.63,0.7,0.95,1.66,0.95
			c1.01,0,2.1-0.11,3.26-0.32c1.21-0.25,1.95-0.44,2.24-0.57c1.45-3.46,4.08-8.82,7.89-16.07c3.86-7.3,7.14-13.73,9.84-19.3
			c2.75-5.61,4.13-9.28,4.13-11.01C216.08,228.36,213.72,226.8,208.99,226.04z M299.33,226.54c-0.77,0-1.69,0.08-2.75,0.25
			c-0.72,1.52-1.09,2.7-1.09,3.54c0,2.4,2.03,3.61,6.08,3.61c0.77,0,1.69-0.08,2.75-0.25c0.72-1.52,1.09-2.7,1.09-3.54
			C305.41,227.74,303.38,226.54,299.33,226.54z M297.08,240.21c-0.53,0-1.23,0.04-2.1,0.13c0.29,1.39,0.43,3.37,0.43,5.95
			c0,2.57-0.39,6.18-1.16,10.82c-0.77,4.64-1.16,8.2-1.16,10.69s0.53,4.62,1.59,6.39c1.11,1.73,3.04,3.02,5.79,3.86
			c-0.58-1.14-0.87-3.65-0.87-7.53c0.05-3.92,0.65-8.88,1.81-14.87c1.21-6.03,1.81-9.36,1.81-10c0-1.94-0.48-3.33-1.45-4.18
			C300.82,240.63,299.25,240.21,297.08,240.21z M340.88,233.69c0.72,0.3,1.52,0.44,2.39,0.44c2.12,0,3.84-0.65,5.14-1.96
			c1.3-1.35,1.95-2.99,1.95-4.94s-0.92-3.61-2.75-5c-1.83-1.39-4.17-2.09-7.02-2.09c-8.64,0-15.03,7.42-19.18,22.27
			c-2.85,0-5.04,0.36-6.59,1.08c-1.5,0.67-2.24,2.02-2.24,4.05c0,0.55,0.05,1.16,0.14,1.83c2.56-0.93,5.04-1.56,7.46-1.9
			c-1.79,8.18-2.68,16.09-2.68,23.73c0,6.79,2.73,11.14,8.18,13.03c-0.53-2.7-0.87-4.6-1.01-5.69c-0.1-1.14-0.14-2.95-0.14-5.44
			c0-8.22,0.82-16.89,2.46-26h6.08c1.5,0,2.63-0.34,3.4-1.01c0.77-0.67,1.16-1.9,1.16-3.67c0-0.51-0.05-1.05-0.14-1.65
			c-1.74,1.22-4.95,1.83-9.63,1.83c2.85-12.49,6.83-18.73,11.94-18.73c1.11,0,2,0.4,2.68,1.2c0.72,0.8,1.09,1.79,1.09,2.97
			c0,1.14-0.31,2.26-0.94,3.35C342.03,232.47,341.45,233.23,340.88,233.69z M369.9,239.2c0,5.23-4.73,15.63-14.19,31.19
			c-0.72-2.99-1.45-7.68-2.17-14.05c-0.68-6.37-1.47-10.67-2.39-12.91c-0.92-2.28-2.63-3.42-5.14-3.42c-1.3,0-2.87,0.55-4.71,1.65
			c1.4,2.02,2.63,5.1,3.69,9.24c1.11,4.13,2.2,9.01,3.26,14.62c1.06,5.57,1.95,9.66,2.68,12.27c-3.38,6.75-5.07,11.33-5.07,13.73
			c0,1.69,0.53,3.16,1.59,4.43c1.11,1.22,3.21,2.15,6.3,2.78c-0.34-1.73-0.51-3.54-0.51-5.44c0-3.84,0.72-7.85,2.17-12.02
			c1.45-4.22,3.21-8.08,5.28-11.58c2.08-3.54,4.15-6.88,6.23-10c2.07-3.12,3.84-5.99,5.28-8.6c1.45-2.62,2.17-4.66,2.17-6.14
			C374.39,242.89,372.89,240.97,369.9,239.2z"/>
	</g>
</g>
</svg>
