<?xml version="1.0" encoding="utf-8"?>
<!-- Generator: Adobe Illustrator 25.2.0, SVG Export Plug-In . SVG Version: 6.00 Build 0)  -->
<svg version="1.1" id="fbeaa106-85b0-4d3b-9f23-e120d706f552"
	 xmlns="http://www.w3.org/2000/svg" xmlns:xlink="http://www.w3.org/1999/xlink" x="0px" y="0px" viewBox="0 0 425.9 549"
	 style="enable-background:new 0 0 425.9 549;" xml:space="preserve">
<style type="text/css">
	.st0{fill:#E6E6E6;}
	.st1{fill:#FFFFFF;}
	.st2{fill:#3770FF;}
	.st3{display:none;}
	.st4{display:inline;fill:#A0616A;}
	.st5{display:inline;fill:#CCCCCC;}
	.st6{display:inline;fill:#2F2E41;}
</style>
<path class="st0" d="M15.5,0C6.9,0,0,6.9,0,15.5v518C0,542,6.9,549,15.5,549h394.9c8.6,0,15.5-6.9,15.5-15.5v-518
	c0-8.6-6.9-15.5-15.5-15.5H15.5z"/>
<path class="st1" d="M398.5,208.4H27.4c-9.1,0-16.5-7.4-16.5-16.5V86.1c0-9.1,7.4-16.5,16.5-16.5h371.2c9.1,0,16.5,7.4,16.5,16.5
	v105.8C415,201,407.6,208.3,398.5,208.4z"/>
<path class="st1" d="M398.5,369.8H27.4c-9.1,0-16.5-7.4-16.5-16.5V247.6c0-9.1,7.4-16.5,16.5-16.5h371.2c9.1,0,16.5,7.4,16.5,16.5
	v105.8C415,362.5,407.6,369.8,398.5,369.8z"/>
<circle class="st1" cx="403.8" cy="21" r="11.3"/>
<circle class="st0" cx="48.3" cy="300.5" r="11.3"/>
<path class="st0" d="M178.2,310H90.1c-5.3,0-9.5-4.3-9.5-9.5s4.3-9.5,9.5-9.5h88.1c5.3,0,9.5,4.3,9.5,9.5S183.5,310,178.2,310z"/>
<circle class="st0" cx="249.1" cy="301" r="11.3"/>
<path class="st0" d="M378.9,310.6h-88.1c-5.3,0-9.5-4.3-9.5-9.5s4.3-9.5,9.5-9.5h88.1c5.3,0,9.5,4.3,9.5,9.5
	S384.2,310.6,378.9,310.6z"/>
<polygon class="st0" points="409.7,16.7 408.1,15.1 403.8,19.4 399.5,15.1 397.9,16.7 402.2,21 397.9,25.2 399.5,26.8 403.8,22.6 
	408.1,26.8 409.7,25.2 405.4,21 "/>
<circle class="st0" cx="48.3" cy="139" r="11.3"/>
<path class="st0" d="M379.8,147.4H111c-5.3,0-9.5-4.3-9.5-9.5c0-5.3,4.3-9.5,9.5-9.5h268.8c5.3,0,9.5,4.3,9.5,9.5
	C389.3,143.1,385,147.4,379.8,147.4z"/>
<path class="st2" d="M332.9,147.4H93.5c-5.3,0-9.5-4.3-9.5-9.5s4.3-9.5,9.5-9.5h239.4c5.3,0,9.5,4.3,9.5,9.5
	C342.4,143.1,338.2,147.4,332.9,147.4z"/>
<g>
	<path class="st1" d="M27.4,393.6c-8.6,0-15.5,6.9-15.5,15.5v105.8c0,8.6,6.9,15.5,15.5,15.5h371.2c8.6,0,15.5-6.9,15.5-15.5V409.1
		c0-8.6-6.9-15.5-15.5-15.5H27.4z"/>
	<circle class="st0" cx="48.3" cy="461.9" r="11.3"/>
	<path class="st0" d="M379.8,470.4H111c-5.3,0-9.5-4.3-9.5-9.5s4.3-9.5,9.5-9.5h268.8c5.3,0,9.5,4.3,9.5,9.5
		S385.1,470.4,379.8,470.4z"/>
	<path class="st2" d="M236.7,470.4H93.5c-5.3,0-9.5-4.3-9.5-9.5s4.3-9.5,9.5-9.5h143.1c5.3,0,9.5,4.3,9.5,9.5
		S241.9,470.4,236.7,470.4L236.7,470.4z"/>
</g>
<path class="st2" d="M105.7,310H90.1c-5.3,0-9.5-4.3-9.5-9.5s4.3-9.5,9.5-9.5h15.5c5.3,0,9.5,4.3,9.5,9.5S110.9,310,105.7,310z"/>
<path class="st2" d="M339.4,310.6h-48.6c-5.3,0-9.5-4.3-9.5-9.5s4.3-9.5,9.5-9.5l0,0h48.6c5.3,0,9.5,4.3,9.5,9.5
	C348.9,306.3,344.7,310.6,339.4,310.6z"/>
<g class="st3">
	<path class="st4" d="M577.8,424.8c5.5-0.6,9.6-5.5,9-11c-0.1-0.6-0.2-1.2-0.3-1.7l29.3-20.5l-17.3-6.8l-25.2,20.5
		c-5.3,1.9-8,7.7-6.1,12.9C568.8,422.6,573.1,425.3,577.8,424.8z"/>
	<path class="st5" d="M591.4,409.9c-0.6,0-1.3-0.1-1.8-0.4c-1.3-0.6-2.3-1.8-2.6-3.2l-2-9.1c-0.3-1.6,0.2-3.2,1.4-4.3l17.4-15.3
		l-17.1-35.9c-2.6-5.5-0.3-12,5.2-14.6c4.9-2.3,10.8-0.7,13.8,3.7l21.9,32.4c3.3,4.8,4.5,10.8,3.2,16.5c-1.4,6-5.3,11.2-10.6,14.2
		l-26.5,15.4C593,409.6,592.2,409.8,591.4,409.9z"/>
	<path class="st4" d="M494.2,390.3c4.6,3.1,10.9,1.8,13.9-2.8c0.3-0.5,0.6-1,0.9-1.6l35.6,2.8l-9-16.3l-32.5-0.2
		c-5.3-1.9-11,0.8-12.9,6.1C488.6,382.9,490.3,387.8,494.2,390.3L494.2,390.3z"/>
	<circle class="st4" cx="579.4" cy="280.7" r="24.6"/>
	<polygon class="st4" points="507,616.7 495.3,613.2 503.2,566.2 520.5,571.3 	"/>
	<path class="st6" d="M506.6,629l-37.9-11.3l0.1-0.5c2.4-8.1,11-12.8,19.1-10.4c0,0,0,0,0,0l0,0l23.1,6.9L506.6,629z"/>
	<polygon class="st4" points="635.8,616.1 623.5,616.1 617.7,568.8 629.8,568.8 	"/>
	<path class="st6" d="M638.9,628l-39.5,0v-0.5c0-8.5,6.9-15.4,15.4-15.4c0,0,0,0,0,0h0l24.1,0L638.9,628z"/>
	<path class="st6" d="M511.6,602.8h-12.3c-2.5,0-4.5-2-4.5-4.5c0-0.3,0-0.5,0.1-0.8l17.2-93.9c0-68.4,26.9-108,27.2-108.4l0.3-0.5
		l50.3,4.1L640,596.4c0.6,2.4-0.8,4.9-3.3,5.5c-0.3,0.1-0.6,0.1-0.9,0.1l-13.8,0.7c-1.9,0.1-3.7-1-4.4-2.8l-53-132.5
		c-0.2-0.6-0.8-1-1.4-0.9c-0.6,0-1.2,0.4-1.4,1l-46,132.3C515.2,601.6,513.5,602.8,511.6,602.8z"/>
	<path class="st5" d="M590.9,402.8l-0.4,0l-53.5-4l9.4-59.7c2.1-13.7,13-24.4,26.7-26.2l0,0c0.4-0.1,0.8-0.1,1.2-0.2
		c10.7-1.4,21.3,2.9,28.1,11.2c6.9,8.4,9,19.9,5.4,30.2L590.9,402.8z"/>
	<path class="st5" d="M563.7,387.2c-4.4,3.5-10,5.2-15.6,4.5l-31-3.3c-2.5-0.3-4.3-2.5-4-5c0.1-0.5,0.2-0.9,0.4-1.4l4.1-9.1
		c0.7-1.5,2.1-2.5,3.8-2.6l22.6-1.5l7.4-39.1c1-5.2,5.5-8.9,10.8-8.9c3.1,0,6.1,1.3,8.2,3.7c1.9,2.2,2.9,5.1,2.8,8.1l-1.4,38.7
		c-0.2,5.9-2.9,11.5-7.4,15.4C564.1,386.8,563.9,387,563.7,387.2z"/>
	<path class="st6" d="M560.7,274.5c-3.1,1.2-6.3,1.9-9.6,2.1c-3.3,0-6.8-1.1-8.6-3.6c-1.4-2.2-1.8-4.9-1-7.4c1.4-5.1,5-9.3,9.8-11.5
		c5-2.3,10.8-2.5,15.9-0.5c1.8-5.6,8.8-8.7,15.3-8.8c13.2-0.4,24.9,8.6,30.6,19.4s6.6,23.1,6.9,35.1c0.1,2.9,0.1,6-1.3,8.6
		c-2.1,3.9-6.7,6-11.2,7.7c-11.6,4.4-23.5,7.7-35.7,10c5.8-3.7,7.7-11.8,4-17.3c-1.8-2.7-4.8-5-5.3-8.1c-0.6-3.8,2.6-7.1,3.8-10.7
		c1.2-4,0-8.4-3.1-11.2c-3.4-2.9-8-4-12.3-2.9"/>
	<path class="st5" d="M655.8,629.5h-207c-0.6,0-1-0.4-1-1s0.4-1,1-1h207c0.6,0,1,0.4,1,1S656.4,629.5,655.8,629.5z"/>
</g>
</svg>
