<svg width="271" height="46" viewBox="0 0 271 46" fill="none" xmlns="http://www.w3.org/2000/svg">
<path d="M270.312 2.71091L227.164 22.6603L241.518 27.6779L270.312 2.71091Z" fill="url(#paint0_linear_1154:1704)"/>
<path d="M241.516 27.6781L244.396 44.7959L270.31 2.71115L241.516 27.6781Z" fill="#AC91E6"/>
<path d="M244.397 44.796L247.984 31.1615L270.312 2.71125L244.397 44.796Z" fill="#CC92E8"/>
<path d="M270.31 2.71123L260.78 42.6677L247.983 31.1615L270.31 2.71123Z" fill="url(#paint1_linear_1154:1704)"/>
<path d="M17.2592 29.5328L14.0912 20.8748C13.9352 20.4908 13.7732 20.0348 13.6052 19.5068C13.4372 18.9788 13.2692 18.4088 13.1012 17.7968C12.9452 18.4088 12.7832 18.9848 12.6152 19.5248C12.4472 20.0528 12.2852 20.5148 12.1292 20.9108L8.97919 29.5328L17.2592 29.5328ZM25.8092 39.3608L22.0652 39.3608C21.6452 39.3608 21.3032 39.2588 21.0392 39.0548C20.7752 38.8388 20.5772 38.5748 20.4452 38.2628L18.5012 32.9528L7.71919 32.9528L5.77519 38.2628C5.67919 38.5388 5.49319 38.7908 5.21719 39.0188C4.94119 39.2468 4.59919 39.3608 4.19119 39.3608L0.411192 39.3608L10.6532 13.3328L15.5852 13.3328L25.8092 39.3608ZM32.8323 39.6488C31.2243 39.6488 29.9883 39.1988 29.1243 38.2988C28.2723 37.3868 27.8463 36.1328 27.8463 34.5368L27.8463 24.2228L25.9563 24.2228C25.7163 24.2228 25.5123 24.1448 25.3443 23.9888C25.1763 23.8328 25.0923 23.5988 25.0923 23.2868L25.0923 21.5228L28.0623 21.0368L28.9983 15.9968C29.0583 15.7568 29.1723 15.5708 29.3403 15.4388C29.5083 15.3068 29.7243 15.2408 29.9883 15.2408L32.2923 15.2408L32.2923 21.0548L37.2243 21.0548L37.2243 24.2228L32.2923 24.2228L32.2923 34.2308C32.2923 34.8068 32.4303 35.2568 32.7063 35.5808C32.9943 35.9048 33.3843 36.0668 33.8763 36.0668C34.1523 36.0668 34.3803 36.0368 34.5603 35.9768C34.7523 35.9048 34.9143 35.8328 35.0463 35.7608C35.1903 35.6888 35.3163 35.6228 35.4243 35.5628C35.5323 35.4908 35.6403 35.4548 35.7483 35.4548C35.8803 35.4548 35.9883 35.4908 36.0723 35.5628C36.1563 35.6228 36.2463 35.7188 36.3423 35.8508L37.6743 38.0108C37.0263 38.5508 36.2823 38.9588 35.4423 39.2348C34.6023 39.5108 33.7323 39.6488 32.8323 39.6488ZM44.5168 22.8728C45.2368 22.2008 46.0288 21.6548 46.8928 21.2348C47.7568 20.8148 48.7708 20.6048 49.9348 20.6048C50.9428 20.6048 51.8368 20.7788 52.6168 21.1268C53.3968 21.4628 54.0448 21.9428 54.5608 22.5668C55.0888 23.1788 55.4848 23.9168 55.7488 24.7808C56.0248 25.6328 56.1628 26.5748 56.1628 27.6068L56.1628 39.3608L51.7168 39.3608L51.7168 27.6068C51.7168 26.4788 51.4588 25.6088 50.9428 24.9968C50.4268 24.3728 49.6408 24.0608 48.5848 24.0608C47.8168 24.0608 47.0968 24.2348 46.4248 24.5828C45.7528 24.9308 45.1168 25.4048 44.5168 26.0048L44.5168 39.3608L40.0708 39.3608L40.0708 12.6128L44.5168 12.6128L44.5168 22.8728ZM72.2891 28.0028C72.2891 27.4268 72.2051 26.8868 72.0371 26.3828C71.8811 25.8668 71.6411 25.4168 71.3171 25.0328C70.9931 24.6488 70.5791 24.3488 70.0751 24.1328C69.5831 23.9048 69.0071 23.7908 68.3471 23.7908C67.0631 23.7908 66.0491 24.1568 65.3051 24.8888C64.5731 25.6208 64.1051 26.6588 63.9011 28.0028L72.2891 28.0028ZM63.8111 30.6848C63.8831 31.6328 64.0511 32.4548 64.3151 33.1508C64.5791 33.8348 64.9271 34.4048 65.3591 34.8608C65.7911 35.3048 66.3011 35.6408 66.8891 35.8688C67.4891 36.0848 68.1491 36.1928 68.8691 36.1928C69.5891 36.1928 70.2071 36.1088 70.7231 35.9408C71.2511 35.7728 71.7071 35.5868 72.0911 35.3828C72.4871 35.1788 72.8291 34.9928 73.1171 34.8248C73.4171 34.6568 73.7051 34.5728 73.9811 34.5728C74.3531 34.5728 74.6291 34.7108 74.8091 34.9868L76.0871 36.6068C75.5951 37.1828 75.0431 37.6688 74.4311 38.0648C73.8191 38.4488 73.1771 38.7608 72.5051 39.0008C71.8451 39.2288 71.1671 39.3908 70.4711 39.4868C69.7871 39.5828 69.1211 39.6308 68.4731 39.6308C67.1891 39.6308 65.9951 39.4208 64.8911 39.0008C63.7871 38.5688 62.8271 37.9388 62.0111 37.1108C61.1951 36.2708 60.5531 35.2388 60.0851 34.0148C59.6171 32.7788 59.3831 31.3508 59.3831 29.7308C59.3831 28.4708 59.5871 27.2888 59.9951 26.1848C60.4031 25.0688 60.9851 24.1028 61.7411 23.2868C62.5091 22.4588 63.4391 21.8048 64.5311 21.3248C65.6351 20.8448 66.8771 20.6048 68.2571 20.6048C69.4211 20.6048 70.4951 20.7908 71.4791 21.1628C72.4631 21.5348 73.3091 22.0808 74.0171 22.8008C74.7251 23.5088 75.2771 24.3848 75.6731 25.4288C76.0811 26.4608 76.2851 27.6428 76.2851 28.9748C76.2851 29.6468 76.2131 30.1028 76.0691 30.3428C75.9251 30.5708 75.6491 30.6848 75.2411 30.6848L63.8111 30.6848ZM83.7796 23.1608C84.1516 22.7888 84.5416 22.4468 84.9496 22.1348C85.3696 21.8108 85.8076 21.5408 86.2636 21.3248C86.7316 21.0968 87.2296 20.9228 87.7576 20.8028C88.2856 20.6708 88.8616 20.6048 89.4856 20.6048C90.4936 20.6048 91.3876 20.7788 92.1676 21.1268C92.9476 21.4628 93.5956 21.9428 94.1116 22.5668C94.6396 23.1788 95.0356 23.9168 95.2996 24.7808C95.5756 25.6328 95.7136 26.5748 95.7136 27.6068L95.7136 39.3608L91.2676 39.3608L91.2676 27.6068C91.2676 26.4788 91.0096 25.6088 90.4936 24.9968C89.9776 24.3728 89.1916 24.0608 88.1356 24.0608C87.3676 24.0608 86.6476 24.2348 85.9756 24.5828C85.3036 24.9308 84.6676 25.4048 84.0676 26.0048L84.0676 39.3608L79.6216 39.3608L79.6216 20.8928L82.3396 20.8928C82.9156 20.8928 83.2936 21.1628 83.4736 21.7028L83.7796 23.1608ZM109.698 31.4768C108.414 31.5368 107.334 31.6508 106.458 31.8188C105.582 31.9748 104.88 32.1788 104.352 32.4308C103.824 32.6828 103.446 32.9768 103.218 33.3128C102.99 33.6488 102.876 34.0148 102.876 34.4108C102.876 35.1908 103.104 35.7488 103.56 36.0848C104.028 36.4208 104.634 36.5888 105.378 36.5888C106.29 36.5888 107.076 36.4268 107.736 36.1028C108.408 35.7668 109.062 35.2628 109.698 34.5908L109.698 31.4768ZM99.5099 23.4668C101.634 21.5228 104.19 20.5508 107.178 20.5508C108.258 20.5508 109.224 20.7308 110.076 21.0908C110.928 21.4388 111.648 21.9308 112.236 22.5668C112.824 23.1908 113.268 23.9408 113.568 24.8168C113.88 25.6928 114.036 26.6528 114.036 27.6968L114.036 39.3608L112.02 39.3608C111.6 39.3608 111.276 39.3008 111.048 39.1808C110.82 39.0488 110.64 38.7908 110.508 38.4068L110.112 37.0748C109.644 37.4948 109.188 37.8668 108.744 38.1908C108.3 38.5028 107.838 38.7668 107.358 38.9828C106.878 39.1988 106.362 39.3608 105.81 39.4688C105.27 39.5888 104.67 39.6488 104.01 39.6488C103.23 39.6488 102.51 39.5468 101.85 39.3428C101.19 39.1268 100.62 38.8088 100.14 38.3888C99.6599 37.9688 99.2879 37.4468 99.0239 36.8228C98.7599 36.1988 98.6279 35.4728 98.6279 34.6448C98.6279 34.1768 98.7059 33.7148 98.8619 33.2588C99.0179 32.7908 99.2699 32.3468 99.6179 31.9268C99.9779 31.5068 100.44 31.1108 101.004 30.7388C101.568 30.3668 102.258 30.0428 103.074 29.7668C103.902 29.4908 104.862 29.2688 105.954 29.1008C107.046 28.9208 108.294 28.8128 109.698 28.7768L109.698 27.6968C109.698 26.4608 109.434 25.5488 108.906 24.9608C108.378 24.3608 107.616 24.0608 106.62 24.0608C105.9 24.0608 105.3 24.1448 104.82 24.3128C104.352 24.4808 103.938 24.6728 103.578 24.8888C103.218 25.0928 102.888 25.2788 102.588 25.4468C102.3 25.6148 101.976 25.6988 101.616 25.6988C101.304 25.6988 101.04 25.6208 100.824 25.4648C100.608 25.2968 100.434 25.1048 100.302 24.8888L99.5099 23.4668ZM132.504 18.0668C132.36 18.3188 132.204 18.5048 132.036 18.6248C131.88 18.7328 131.682 18.7868 131.442 18.7868C131.19 18.7868 130.914 18.6968 130.614 18.5168C130.326 18.3248 129.978 18.1148 129.57 17.8868C129.162 17.6588 128.682 17.4548 128.13 17.2748C127.59 17.0828 126.948 16.9868 126.204 16.9868C125.532 16.9868 124.944 17.0708 124.44 17.2388C123.936 17.3948 123.51 17.6168 123.162 17.9048C122.826 18.1928 122.574 18.5408 122.406 18.9488C122.238 19.3448 122.154 19.7828 122.154 20.2628C122.154 20.8748 122.322 21.3848 122.658 21.7928C123.006 22.2008 123.462 22.5488 124.026 22.8368C124.59 23.1248 125.232 23.3828 125.952 23.6108C126.672 23.8388 127.41 24.0848 128.166 24.3488C128.922 24.6008 129.66 24.9008 130.38 25.2488C131.1 25.5848 131.742 26.0168 132.306 26.5448C132.87 27.0608 133.32 27.6968 133.656 28.4528C134.004 29.2088 134.178 30.1268 134.178 31.2068C134.178 32.3828 133.974 33.4868 133.566 34.5188C133.17 35.5388 132.582 36.4328 131.802 37.2008C131.034 37.9568 130.092 38.5568 128.976 39.0008C127.86 39.4328 126.582 39.6488 125.142 39.6488C124.314 39.6488 123.498 39.5648 122.694 39.3968C121.89 39.2408 121.116 39.0128 120.372 38.7128C119.64 38.4128 118.95 38.0528 118.302 37.6328C117.654 37.2128 117.078 36.7448 116.574 36.2288L117.996 33.9068C118.116 33.7388 118.272 33.6008 118.464 33.4928C118.656 33.3728 118.86 33.3128 119.076 33.3128C119.376 33.3128 119.7 33.4388 120.048 33.6908C120.396 33.9308 120.81 34.2008 121.29 34.5008C121.77 34.8008 122.328 35.0768 122.964 35.3288C123.612 35.5688 124.386 35.6888 125.286 35.6888C126.666 35.6888 127.734 35.3648 128.49 34.7168C129.246 34.0568 129.624 33.1148 129.624 31.8908C129.624 31.2068 129.45 30.6488 129.102 30.2168C128.766 29.7848 128.316 29.4248 127.752 29.1368C127.188 28.8368 126.546 28.5848 125.826 28.3808C125.106 28.1768 124.374 27.9548 123.63 27.7148C122.886 27.4748 122.154 27.1868 121.434 26.8508C120.714 26.5148 120.072 26.0768 119.508 25.5368C118.944 24.9968 118.488 24.3248 118.14 23.5208C117.804 22.7048 117.636 21.7028 117.636 20.5148C117.636 19.5668 117.822 18.6428 118.194 17.7428C118.578 16.8428 119.13 16.0448 119.85 15.3488C120.57 14.6528 121.458 14.0948 122.514 13.6748C123.57 13.2548 124.782 13.0448 126.15 13.0448C127.686 13.0448 129.102 13.2848 130.398 13.7648C131.694 14.2448 132.798 14.9168 133.71 15.7808L132.504 18.0668ZM149.221 25.6088C148.729 24.9968 148.183 24.5648 147.583 24.3128C146.983 24.0608 146.341 23.9348 145.657 23.9348C144.985 23.9348 144.379 24.0608 143.839 24.3128C143.299 24.5648 142.837 24.9488 142.453 25.4648C142.069 25.9688 141.775 26.6168 141.571 27.4088C141.367 28.1888 141.265 29.1128 141.265 30.1808C141.265 31.2608 141.349 32.1788 141.517 32.9348C141.697 33.6788 141.949 34.2908 142.273 34.7708C142.597 35.2388 142.993 35.5808 143.461 35.7968C143.929 36.0008 144.451 36.1028 145.027 36.1028C145.951 36.1028 146.737 35.9108 147.385 35.5268C148.033 35.1428 148.645 34.5968 149.221 33.8888L149.221 25.6088ZM153.667 20.8928L153.667 45.3908L149.221 45.3908L149.221 37.0208C148.489 37.8008 147.661 38.4308 146.737 38.9108C145.813 39.3908 144.739 39.6308 143.515 39.6308C142.507 39.6308 141.583 39.4208 140.743 39.0008C139.903 38.5808 139.177 37.9748 138.565 37.1828C137.965 36.3788 137.497 35.3888 137.161 34.2128C136.837 33.0368 136.675 31.6928 136.675 30.1808C136.675 28.8128 136.861 27.5408 137.233 26.3648C137.605 25.1888 138.139 24.1688 138.835 23.3048C139.531 22.4408 140.365 21.7688 141.337 21.2888C142.309 20.7968 143.401 20.5508 144.613 20.5508C145.765 20.5508 146.731 20.7488 147.511 21.1448C148.291 21.5408 148.987 22.0748 149.599 22.7468L149.833 21.7028C149.989 21.1628 150.361 20.8928 150.949 20.8928L153.667 20.8928ZM173.967 20.8928L173.967 39.3608L171.249 39.3608C170.661 39.3608 170.289 39.0908 170.133 38.5508L169.827 37.0748C169.071 37.8428 168.237 38.4668 167.325 38.9468C166.413 39.4148 165.339 39.6488 164.103 39.6488C163.095 39.6488 162.201 39.4808 161.421 39.1448C160.653 38.7968 160.005 38.3108 159.477 37.6868C158.949 37.0628 158.547 36.3248 158.271 35.4728C158.007 34.6088 157.875 33.6608 157.875 32.6288L157.875 20.8928L162.321 20.8928L162.321 32.6288C162.321 33.7568 162.579 34.6328 163.095 35.2568C163.623 35.8688 164.409 36.1748 165.453 36.1748C166.221 36.1748 166.941 36.0068 167.613 35.6708C168.285 35.3228 168.921 34.8488 169.521 34.2488L169.521 20.8928L173.967 20.8928ZM188.132 31.4768C186.848 31.5368 185.768 31.6508 184.892 31.8188C184.016 31.9748 183.314 32.1788 182.786 32.4308C182.258 32.6828 181.88 32.9768 181.652 33.3128C181.424 33.6488 181.31 34.0148 181.31 34.4108C181.31 35.1908 181.538 35.7488 181.994 36.0848C182.462 36.4208 183.068 36.5888 183.812 36.5888C184.724 36.5888 185.51 36.4268 186.17 36.1028C186.842 35.7668 187.496 35.2628 188.132 34.5908L188.132 31.4768ZM177.944 23.4668C180.068 21.5228 182.624 20.5508 185.612 20.5508C186.692 20.5508 187.658 20.7308 188.51 21.0908C189.362 21.4388 190.082 21.9308 190.67 22.5668C191.258 23.1908 191.702 23.9408 192.002 24.8168C192.314 25.6928 192.47 26.6528 192.47 27.6968L192.47 39.3608L190.454 39.3608C190.034 39.3608 189.71 39.3008 189.482 39.1808C189.254 39.0488 189.074 38.7908 188.942 38.4068L188.546 37.0748C188.078 37.4948 187.622 37.8668 187.178 38.1908C186.734 38.5028 186.272 38.7668 185.792 38.9828C185.312 39.1988 184.796 39.3608 184.244 39.4688C183.704 39.5888 183.104 39.6488 182.444 39.6488C181.664 39.6488 180.944 39.5468 180.284 39.3428C179.624 39.1268 179.054 38.8088 178.574 38.3888C178.094 37.9688 177.722 37.4468 177.458 36.8228C177.194 36.1988 177.062 35.4728 177.062 34.6448C177.062 34.1768 177.14 33.7148 177.296 33.2588C177.452 32.7908 177.704 32.3468 178.052 31.9268C178.412 31.5068 178.874 31.1108 179.438 30.7388C180.002 30.3668 180.692 30.0428 181.508 29.7668C182.336 29.4908 183.296 29.2688 184.388 29.1008C185.48 28.9208 186.728 28.8128 188.132 28.7768L188.132 27.6968C188.132 26.4608 187.868 25.5488 187.34 24.9608C186.812 24.3608 186.05 24.0608 185.054 24.0608C184.334 24.0608 183.734 24.1448 183.254 24.3128C182.786 24.4808 182.372 24.6728 182.012 24.8888C181.652 25.0928 181.322 25.2788 181.022 25.4468C180.734 25.6148 180.41 25.6988 180.05 25.6988C179.738 25.6988 179.474 25.6208 179.258 25.4648C179.042 25.2968 178.868 25.1048 178.736 24.8888L177.944 23.4668ZM200.851 24.0968C201.427 22.9928 202.111 22.1288 202.903 21.5048C203.695 20.8688 204.631 20.5508 205.711 20.5508C206.563 20.5508 207.247 20.7368 207.763 21.1088L207.475 24.4388C207.415 24.6548 207.325 24.8108 207.205 24.9068C207.097 24.9908 206.947 25.0328 206.755 25.0328C206.575 25.0328 206.305 25.0028 205.945 24.9428C205.597 24.8828 205.255 24.8528 204.919 24.8528C204.427 24.8528 203.989 24.9248 203.605 25.0688C203.221 25.2128 202.873 25.4228 202.561 25.6988C202.261 25.9628 201.991 26.2868 201.751 26.6708C201.523 27.0548 201.307 27.4928 201.103 27.9848L201.103 39.3608L196.657 39.3608L196.657 20.8928L199.267 20.8928C199.723 20.8928 200.041 20.9768 200.221 21.1448C200.401 21.3008 200.521 21.5888 200.581 22.0088L200.851 24.0968ZM221.457 28.0028C221.457 27.4268 221.373 26.8868 221.205 26.3828C221.049 25.8668 220.809 25.4168 220.485 25.0328C220.161 24.6488 219.747 24.3488 219.243 24.1328C218.751 23.9048 218.175 23.7908 217.515 23.7908C216.231 23.7908 215.217 24.1568 214.473 24.8888C213.741 25.6208 213.273 26.6588 213.069 28.0028L221.457 28.0028ZM212.979 30.6848C213.051 31.6328 213.219 32.4548 213.483 33.1508C213.747 33.8348 214.095 34.4048 214.527 34.8608C214.959 35.3048 215.469 35.6408 216.057 35.8688C216.657 36.0848 217.317 36.1928 218.037 36.1928C218.757 36.1928 219.375 36.1088 219.891 35.9408C220.419 35.7728 220.875 35.5868 221.259 35.3828C221.655 35.1788 221.997 34.9928 222.285 34.8248C222.585 34.6568 222.873 34.5728 223.149 34.5728C223.521 34.5728 223.797 34.7108 223.977 34.9868L225.255 36.6068C224.763 37.1828 224.211 37.6688 223.599 38.0648C222.987 38.4488 222.345 38.7608 221.673 39.0008C221.013 39.2288 220.335 39.3908 219.639 39.4868C218.955 39.5828 218.289 39.6308 217.641 39.6308C216.357 39.6308 215.163 39.4208 214.059 39.0008C212.955 38.5688 211.995 37.9388 211.179 37.1108C210.363 36.2708 209.721 35.2388 209.253 34.0148C208.785 32.7788 208.551 31.3508 208.551 29.7308C208.551 28.4708 208.755 27.2888 209.163 26.1848C209.571 25.0688 210.153 24.1028 210.909 23.2868C211.677 22.4588 212.607 21.8048 213.699 21.3248C214.803 20.8448 216.045 20.6048 217.425 20.6048C218.589 20.6048 219.663 20.7908 220.647 21.1628C221.631 21.5348 222.477 22.0808 223.185 22.8008C223.893 23.5088 224.445 24.3848 224.841 25.4288C225.249 26.4608 225.453 27.6428 225.453 28.9748C225.453 29.6468 225.381 30.1028 225.237 30.3428C225.093 30.5708 224.817 30.6848 224.409 30.6848L212.979 30.6848Z" fill="url(#paint2_linear_1154:1704)"/>
<defs>
<linearGradient id="paint0_linear_1154:1704" x1="217.599" y1="2.21687" x2="280.612" y2="23.767" gradientUnits="userSpaceOnUse">
<stop offset="0.317708" stop-color="#5957CA"/>
<stop offset="1" stop-color="#872BBF"/>
</linearGradient>
<linearGradient id="paint1_linear_1154:1704" x1="243.272" y1="2.45782" x2="278.807" y2="6.63632" gradientUnits="userSpaceOnUse">
<stop offset="0.317708" stop-color="#5957CA"/>
<stop offset="1" stop-color="#872BBF"/>
</linearGradient>
<linearGradient id="paint2_linear_1154:1704" x1="-52.3449" y1="4.36081" x2="95.2683" y2="189.462" gradientUnits="userSpaceOnUse">
<stop offset="0.317708" stop-color="#5957CA"/>
<stop offset="1" stop-color="#872BBF"/>
</linearGradient>
</defs>
</svg>
